<svg width="151" height="9" viewBox="0 0 151 9" fill="none" xmlns="http://www.w3.org/2000/svg">
<path d="M10.3513 4.0912C10.3513 2.9798 9.9699 2.04274 9.21807 1.26912C8.46624 0.495497 7.55097 0.114136 6.48316 0.114136C5.51341 0.114136 4.67441 0.419225 3.96617 1.0403C3.26882 1.65048 2.83298 2.39141 2.66953 3.27399H1.63441V0.277576H0V7.90482H1.63441V4.79944H2.66953C2.83298 5.7256 3.26882 6.51012 3.96617 7.1312C4.66351 7.75227 5.50251 8.06826 6.48316 8.06826C7.55097 8.06826 8.46624 7.68689 9.21807 6.91327C9.9699 6.15055 10.3513 5.20259 10.3513 4.0912ZM8.71685 4.0912C8.71685 4.81034 8.49893 5.40962 8.06309 5.87815C7.61635 6.35758 7.09334 6.59729 6.48316 6.59729C5.87298 6.59729 5.34997 6.35758 4.91412 5.87815C4.46739 5.40962 4.24946 4.81034 4.24946 4.0912C4.24946 3.37206 4.46739 2.77277 4.91412 2.29335C5.34997 1.82482 5.87298 1.5851 6.48316 1.5851C7.09334 1.5851 7.61635 1.82482 8.06309 2.29335C8.49893 2.77277 8.71685 3.37206 8.71685 4.0912Z" fill="white"/>
<path d="M12.9603 0.278137V7.90538H14.5947V5.39928H16.1746C16.9591 5.39928 17.6129 5.14867 18.125 4.65835C18.6371 4.16803 18.8986 3.55785 18.8986 2.83871C18.8986 2.10867 18.6371 1.50939 18.125 1.00817C17.602 0.51785 16.9591 0.278137 16.1746 0.278137H12.9603ZM16.1201 1.7491C16.447 1.7491 16.7194 1.85807 16.9373 2.06509C17.1552 2.27212 17.2642 2.53362 17.2642 2.83871C17.2642 3.1438 17.1552 3.40531 16.9373 3.61233C16.7194 3.81936 16.447 3.92832 16.1201 3.92832H14.5947V1.7491H16.1201Z" fill="white"/>
<path d="M28.2618 7.90538V0.278137H26.8453L23.0862 5.12688V0.278137H21.4518V7.90538H22.8683L26.6274 3.05663V7.90538H28.2618Z" fill="white"/>
<path d="M30.3245 6.43441V9.4853H31.9589V7.90537H36.5353V9.4853H38.1697V6.43441H37.2435V0.278137H31.9589V2.62079C31.9589 3.1329 31.9153 3.61233 31.8282 4.05907C31.741 4.5167 31.6429 4.87627 31.5449 5.14867C31.4359 5.41018 31.3161 5.64989 31.1744 5.87871C31.0328 6.09663 30.9456 6.23828 30.8911 6.30365C30.8257 6.35813 30.7931 6.41262 30.7604 6.43441H30.3245ZM33.5933 2.62079V1.7491H35.6091V6.43441H32.3948L32.5255 6.30365C32.6018 6.21649 32.6999 6.07484 32.8197 5.86781C32.9396 5.66079 33.0485 5.42107 33.1684 5.14867C33.2883 4.87627 33.3863 4.50581 33.4626 4.05907C33.5498 3.61233 33.5933 3.1329 33.5933 2.62079Z" fill="white"/>
<path d="M47.3114 7.90538V0.278137H45.8949L42.1358 5.12688V0.278137H40.5013V7.90538H41.9178L45.677 3.05663V7.90538H47.3114Z" fill="white"/>
<path d="M51.8817 0.278137H50.2473V2.62079C50.2473 3.53606 50.487 4.2443 50.9665 4.74552C51.4568 5.25763 52.1214 5.50824 52.9713 5.50824C53.7014 5.50824 54.3007 5.3666 54.7692 5.0724V7.90538H56.4036V0.278137H54.7692V3.49247L54.5839 3.63412C54.4641 3.72129 54.2789 3.80846 54.0282 3.90652C53.7776 3.99369 53.5161 4.03728 53.2437 4.03728C52.8079 4.03728 52.4701 3.91742 52.2304 3.67771C52.0016 3.4271 51.8817 3.07842 51.8817 2.62079V0.278137Z" fill="white"/>
<path d="M65.9856 0.278137H64.3512V3.32903H61.0824V0.278137H59.448V7.90538H61.0824V4.8H64.3512V7.90538H65.9856V0.278137Z" fill="white"/>
<path d="M72.9549 4.69104H71.1026L72.0288 2.18495L72.9549 4.69104ZM73.4997 6.10753L74.1535 7.90538H75.8969L72.9004 0.278137H71.1571L68.1606 7.90538H69.904L70.5578 6.10753H73.4997Z" fill="white"/>
<path d="M83.0222 0.278137H81.3878V7.90538H83.0222V5.72617L84.0029 4.63656L86.2366 7.90538H88.1434L85.0925 3.43799L87.9255 0.278137H86.0186L83.0222 3.60143V0.278137Z" fill="white"/>
<path d="M91.4615 4.0912C91.4615 3.39385 91.7012 2.79457 92.1806 2.31514C92.6491 1.82482 93.2266 1.5851 93.9131 1.5851C94.5995 1.5851 95.177 1.82482 95.6456 2.31514C96.125 2.79457 96.3647 3.39385 96.3647 4.0912C96.3647 4.79944 96.125 5.38783 95.6456 5.86726C95.177 6.35758 94.5995 6.59729 93.9131 6.59729C93.2266 6.59729 92.6491 6.35758 92.1806 5.86726C91.7012 5.38783 91.4615 4.79944 91.4615 4.0912ZM89.7726 4.0912C89.7726 5.1808 90.1757 6.12876 90.9711 6.90238C91.7666 7.676 92.7472 8.06826 93.9131 8.06826C95.079 8.06826 96.0596 7.676 96.855 6.90238C97.6504 6.12876 98.0536 5.1808 98.0536 4.0912C98.0536 2.9907 97.6504 2.05363 96.855 1.28001C96.0596 0.506394 95.079 0.114136 93.9131 0.114136C92.7472 0.114136 91.7666 0.506394 90.9711 1.28001C90.1757 2.05363 89.7726 2.9907 89.7726 4.0912Z" fill="white"/>
<path d="M104.748 3.60143L102.133 0.278137H100.662V7.90538H102.297V2.83871L104.748 5.94409L107.2 2.81692V7.90538H108.834V0.278137H107.385L104.748 3.60143Z" fill="white"/>
<path d="M118.36 0.278137H111.876V7.90538H113.511V1.7491H116.725V7.90538H118.36V0.278137Z" fill="white"/>
<path d="M125.33 4.69104H123.478L124.404 2.18495L125.33 4.69104ZM125.875 6.10753L126.528 7.90538H128.272L125.275 0.278137H123.532L120.536 7.90538H122.279L122.933 6.10753H125.875Z" fill="white"/>
<path d="M136.983 0.278137H135.349V3.32903H132.08V0.278137H130.445V7.90538H132.08V4.8H135.349V7.90538H136.983V0.278137Z" fill="white"/>
<path d="M141.662 0.278137H140.027V7.90538H141.662V0.278137Z" fill="white"/>
<path d="M150.373 0.278137H146.995C146.232 0.278137 145.611 0.51785 145.121 0.997277C144.63 1.4767 144.38 2.07599 144.38 2.78423C144.38 3.08932 144.434 3.37262 144.521 3.64502C144.619 3.91742 144.728 4.12444 144.859 4.27699C144.979 4.42953 145.11 4.57118 145.273 4.70194C145.426 4.83269 145.535 4.91986 145.6 4.95255C145.655 4.97434 145.709 5.00703 145.742 5.01792L144.107 7.90538H145.851L147.322 5.23584H148.738V7.90538H150.373V0.278137ZM146.014 2.78423C146.014 2.47914 146.112 2.23943 146.308 2.0433C146.504 1.84717 146.755 1.7491 147.049 1.7491H148.738V3.76488H147.049C146.755 3.76488 146.504 3.66681 146.308 3.48158C146.112 3.29634 146.014 3.05663 146.014 2.78423Z" fill="white"/>
</svg>
