<svg width="160" height="56" viewBox="0 0 160 56" fill="none" xmlns="http://www.w3.org/2000/svg">
<g filter="url(#filter0_d_362_263)">
<path d="M5.48113 1.00006V0.500061H4.98113H0H-0.5V1.00006V36.975V37.475H0H4.98113H5.48113V36.975V23.6286C5.48113 21.4496 6.02271 19.8031 7.03842 18.6688C8.05571 17.5327 9.45213 16.9286 11.232 16.9286C12.7286 16.9286 13.965 17.4728 14.9701 18.5275C15.9738 19.6055 16.4944 20.9597 16.4944 22.6251V37.0001V37.5001H16.9944H22H22.5V37.0001V22.6251C22.5 19.2187 21.568 16.4781 19.657 14.4086C17.7463 12.3393 15.2397 11.3126 12.2331 11.3126C11.3634 11.3126 10.4879 11.4176 9.63382 11.6568C8.77942 11.8893 8.0866 12.1513 7.51182 12.4466C6.95934 12.7304 6.41938 13.0464 5.92462 13.4209C5.76292 13.5433 5.61397 13.6573 5.48113 13.7615V1.00006Z" fill="#F0145A" stroke="black"/>
<path d="M28.5 1.5H32.635V36.445H28.5V1.5Z" fill="white" stroke="black"/>
<path d="M58.928 30.281L58.9282 30.2811L58.9363 30.2708L59.3582 29.7364L61.9797 32.358C61.9256 32.4214 61.8646 32.4939 61.7993 32.5755C61.6312 32.7857 61.2135 33.1617 60.5317 33.7386C59.894 34.2781 59.1507 34.775 58.394 35.2293C57.7207 35.6133 56.7364 36.0098 55.5192 36.4158C54.3287 36.7623 53.1464 36.958 51.8684 36.958C48.5142 36.958 45.6123 35.7307 43.1879 33.2568C40.7615 30.7809 39.5309 27.8249 39.5309 24.3638C39.5309 21.0065 40.7092 18.2062 43.0816 15.8338C45.4533 13.4621 48.3046 12.283 51.6116 12.283C54.9301 12.283 57.6752 13.3673 59.8849 15.577C62.0891 17.7812 63.1735 20.5181 63.1789 23.8255L62.9697 25.9178H44.1659H43.587L43.6712 26.4905C43.9476 28.37 44.8895 29.9605 46.4004 31.3096C47.9358 32.6805 49.7512 33.3365 51.8684 33.3365C53.3823 33.3365 54.7971 33.011 56.1557 32.3045L56.1558 32.3046L56.1632 32.3005C57.4086 31.626 58.3514 30.973 58.928 30.281ZM56.6737 17.4224L56.6657 17.4151L56.6574 17.4081C55.278 16.2494 53.6217 15.6478 51.6116 15.6478C49.657 15.6478 47.9438 16.2472 46.6095 17.4147L46.6085 17.4156C45.2434 18.6169 44.373 20.0927 43.8879 21.9251L43.7217 22.553H44.3713H58.6466H59.2426L59.139 21.9661C58.8121 20.1136 57.9885 18.6276 56.6737 17.4224Z" fill="white" stroke="black"/>
<path d="M87.8712 14.864V12.7965H92.0062V35.404C92.0062 38.7649 90.8765 41.5133 88.6094 43.8314C86.2914 46.0983 83.543 47.228 80.1822 47.228C78.8458 47.228 77.5561 47.0301 76.3117 46.6817C75.0605 46.3314 74.076 45.9359 73.2997 45.5006C72.5025 45.0019 71.8024 44.5023 71.1982 44.0494C70.598 43.5484 70.1779 43.1216 69.9596 42.8159L69.9517 42.8048L69.9432 42.7942L69.812 42.6301L72.4543 39.9878C72.4645 39.9984 72.4749 40.009 72.4856 40.0196L72.4929 40.027L72.5005 40.0345L72.5163 40.0503L72.5204 40.0544L72.5245 40.0586L72.5256 40.0596L72.5266 40.0607L72.5287 40.0628L72.5309 40.0649L72.5319 40.066L72.533 40.067L72.5373 40.0713L72.5395 40.0735L72.5417 40.0757L72.5461 40.0801L72.5472 40.0813L72.5483 40.0824L72.5495 40.0835L72.5506 40.0846L72.5885 40.1225L72.63 40.1641L72.6521 40.1862L72.6578 40.1918L72.6635 40.1976L72.6693 40.2034L72.6752 40.2092L72.7239 40.2579L72.8322 40.3663L72.8918 40.4258L72.8995 40.4335L72.9072 40.4413L72.9229 40.457L72.9388 40.4729L72.9469 40.4809L72.955 40.489L72.9713 40.5054L72.9879 40.522L72.9963 40.5303L73.0047 40.5388L73.0218 40.5558L73.0304 40.5644L73.039 40.5731L73.0477 40.5818L73.0499 40.584L73.0521 40.5862L73.0543 40.5884L73.0565 40.5906L73.0654 40.5994L73.0742 40.6083L73.0832 40.6172L73.0877 40.6217L73.0899 40.624L73.0922 40.6262L73.2438 40.7779L73.2488 40.7828L73.2538 40.7878L73.2638 40.7978L73.2739 40.8079L73.284 40.818L73.3251 40.8591L73.367 40.9011L73.3884 40.9224L73.3991 40.9331L73.4099 40.9439L73.4192 40.9532L73.429 40.962C73.9711 41.4499 74.51 41.8261 75.0869 42.1933C75.6958 42.5807 76.4071 42.907 77.3196 43.1754C78.2312 43.4435 79.2032 43.6065 80.1822 43.6065C82.416 43.6065 84.2428 42.8376 85.6771 41.3483C87.1683 39.8019 87.8712 37.8212 87.8712 35.4554V33.35V32.1429L87.0177 32.9965L86.6582 33.3559L86.6582 33.356C86.6576 33.3565 86.6516 33.3623 86.6369 33.3748C86.622 33.3875 86.6024 33.4036 86.5774 33.4236C86.5269 33.4638 86.4619 33.5138 86.3819 33.5746C86.3451 33.6025 86.3055 33.6325 86.2634 33.6644C86.1251 33.7691 85.9599 33.8942 85.7805 34.0337C85.351 34.3678 84.8714 34.656 84.3401 34.8975C83.8002 35.1429 83.1576 35.3907 82.3611 35.6403C81.5288 35.8349 80.7508 35.931 79.9255 35.931C76.939 35.931 74.3965 34.8128 72.1733 32.4907C69.955 30.1738 68.8717 27.4235 68.8717 24.107C68.8717 20.7906 69.955 18.0403 72.1733 15.7233C74.3965 13.4013 76.939 12.283 79.9255 12.283C81.1971 12.283 82.4666 12.5277 83.6358 13.0148C84.8438 13.5182 85.6576 14.0052 86.1619 14.4637L86.1619 14.4638L86.1675 14.4687L87.0404 15.2389L87.8712 15.972V14.864ZM85.6895 18.3302L85.6896 18.3301L85.6832 18.3232C84.2145 16.7458 82.4436 15.9045 80.439 15.9045C78.4343 15.9045 76.6634 16.7458 75.1948 18.3232C73.7148 19.9128 73.0067 21.8351 73.0067 24.107C73.0067 26.379 73.7148 28.3013 75.1948 29.8908C76.6634 31.4683 78.4343 32.3095 80.439 32.3095C82.4436 32.3095 84.2145 31.4683 85.6832 29.8908L85.6832 29.8909L85.6895 29.8839C87.1067 28.3032 87.8712 26.3871 87.8712 24.107C87.8712 21.8269 87.1067 19.9109 85.6895 18.3302Z" fill="white" stroke="black"/>
<path d="M113.559 34.3345C113.433 34.4069 113.302 34.5027 113.172 34.6016C113.073 34.6766 112.959 34.7661 112.835 34.8635C112.755 34.9265 112.67 34.9928 112.583 35.0607C112.154 35.3948 111.674 35.683 111.143 35.9245C110.601 36.1705 109.965 36.4153 109.13 36.6119L109.112 36.616L109.095 36.6214C108.33 36.8604 107.56 36.958 106.728 36.958C104.317 36.958 102.385 36.2733 100.793 34.8744L100.793 34.8737C99.2381 33.5136 98.4985 32.0005 98.4985 30.269C98.4985 28.3889 99.1209 26.8166 100.317 25.5251L100.317 25.5252L100.324 25.5176C101.461 24.2379 103.142 23.4061 105.268 23.06L105.268 23.0601L105.272 23.0593L114.258 21.5188L114.674 21.4476V21.026C114.674 19.6105 114.159 18.3416 113.069 17.367C111.994 16.4049 110.64 15.9045 109.039 15.9045C107.686 15.9045 106.423 16.1757 105.264 16.7832C104.174 17.3537 103.369 17.9097 102.887 18.5702L102.57 18.9849L99.9528 16.368C99.9905 16.3225 100.03 16.2731 100.071 16.2204C100.275 16.0167 100.618 15.677 101.194 15.1968L101.203 15.1892L101.212 15.1813C101.796 14.6457 102.435 14.2023 103.087 13.8007C103.699 13.4246 104.571 13.0809 105.689 12.7248C106.771 12.4306 107.904 12.283 109.039 12.283C111.966 12.283 114.299 13.123 116.09 14.8165L116.09 14.8165L116.095 14.8214C117.892 16.4724 118.809 18.5468 118.809 21.026V36.4445H114.674V34.377V33.1699L113.82 34.0235C113.785 34.0585 113.753 34.0983 113.735 34.1209L113.702 34.1631L113.668 34.2059C113.634 34.2481 113.598 34.2916 113.559 34.3345ZM106.135 25.9242L106.132 25.9246C105.109 26.0952 104.243 26.553 103.602 27.1939C102.921 27.8744 102.634 28.7845 102.634 29.7555C102.634 30.7527 103.082 31.6107 104.008 32.3076C104.895 33.014 106.096 33.3365 107.498 33.3365C109.706 33.3365 111.492 32.6868 112.789 31.3339L112.789 31.334L112.796 31.3265C114.087 29.9228 114.674 28.0402 114.674 25.6475V25.134V24.5469L114.094 24.6404L106.135 25.9242Z" fill="white" stroke="black"/>
<path d="M126.005 1.5H130.14V36.445H126.005V1.5Z" fill="white" stroke="black"/>
<path d="M140.81 24.1733L140.796 24.166L140.781 24.1597C139.919 23.7972 139.223 23.1587 138.65 22.253C138.087 21.3122 137.8 20.2743 137.8 18.972C137.8 17.2432 138.537 15.7293 140.146 14.3157C141.685 12.969 143.617 12.283 146.03 12.283C146.966 12.283 147.901 12.3812 148.784 12.5764C149.69 12.8285 150.403 13.0698 150.911 13.3439C151.015 13.4102 151.116 13.4739 151.214 13.5359C151.658 13.8152 152.043 14.058 152.398 14.3344C152.843 14.6803 153.125 14.9161 153.307 15.0952L150.651 17.7514L150.44 17.5401C150.262 17.3624 150.009 17.1944 149.72 17.0334C149.426 16.8693 149.065 16.696 148.649 16.5137C147.824 16.1295 146.932 15.9045 146.03 15.9045C144.834 15.9045 143.834 16.175 143.098 16.7844C142.332 17.377 141.935 18.1295 141.935 18.972C141.935 19.8546 142.322 20.6165 143.059 21.1693C143.722 21.6661 144.548 22.1062 145.536 22.3807L145.552 22.385L145.567 22.3883C146.331 22.549 147.091 22.807 147.941 23.095C148.136 23.1613 148.336 23.2291 148.542 23.2976C149.604 23.6517 150.599 24.0511 151.487 24.5441L151.501 24.552L151.515 24.5589C152.395 24.9753 153.096 25.6245 153.669 26.5307L153.669 26.5308L153.676 26.5411C154.224 27.3636 154.516 28.4411 154.516 29.7555C154.516 31.7056 153.714 33.421 152.118 34.8231C150.532 36.2169 148.398 36.958 145.773 36.958C144.634 36.958 143.499 36.8093 142.47 36.5151C141.417 36.2145 140.537 35.8697 139.866 35.4874C139.21 35.0834 138.617 34.6872 138.079 34.2468L138.079 34.2468L138.075 34.2434C137.587 33.8532 137.254 33.519 137.022 33.2417L136.939 33.1347L139.57 30.504C139.685 30.6426 139.813 30.7944 139.95 30.9539L139.963 30.9685L139.976 30.982C140.39 31.3959 141.111 31.8861 142.203 32.4579L142.212 32.4623L142.22 32.4664C143.349 33.0039 144.552 33.3365 145.773 33.3365C147.224 33.3365 148.373 33.0153 149.159 32.4113L149.168 32.4042L149.177 32.3966C149.959 31.7344 150.381 30.8232 150.381 29.7555C150.381 28.873 149.994 28.111 149.257 27.5583C148.582 27.0521 147.756 26.6717 146.804 26.3542L146.789 26.3491L146.773 26.345C145.813 26.0923 144.849 25.7882 143.774 25.4299C142.726 25.0806 141.722 24.6294 140.81 24.1733Z" fill="white" stroke="black"/>
</g>
<defs>
<filter id="filter0_d_362_263" x="-5" y="6.10352e-05" width="164.016" height="55.728" filterUnits="userSpaceOnUse" color-interpolation-filters="sRGB">
<feFlood flood-opacity="0" result="BackgroundImageFix"/>
<feColorMatrix in="SourceAlpha" type="matrix" values="0 0 0 0 0 0 0 0 0 0 0 0 0 0 0 0 0 0 127 0" result="hardAlpha"/>
<feOffset dy="4"/>
<feGaussianBlur stdDeviation="2"/>
<feComposite in2="hardAlpha" operator="out"/>
<feColorMatrix type="matrix" values="0 0 0 0 0 0 0 0 0 0 0 0 0 0 0 0 0 0 0.25 0"/>
<feBlend mode="normal" in2="BackgroundImageFix" result="effect1_dropShadow_362_263"/>
<feBlend mode="normal" in="SourceGraphic" in2="effect1_dropShadow_362_263" result="shape"/>
</filter>
</defs>
</svg>
